<?xml version="1.0" encoding="iso-8859-1"?>
<!-- Uploaded to: SVG Repo, www.svgrepo.com, Generator: SVG Repo Mixer Tools -->
<!DOCTYPE svg PUBLIC "-//W3C//DTD SVG 1.1//EN" "http://www.w3.org/Graphics/SVG/1.1/DTD/svg11.dtd">
<svg fill="#000000" version="1.1" id="Capa_1" xmlns="http://www.w3.org/2000/svg" xmlns:xlink="http://www.w3.org/1999/xlink" 
	 width="800px" height="800px" viewBox="0 0 483.226 483.226"
	 xml:space="preserve">
<g>
	<g>
		<path d="M5.252,360.349c60.967-28.236,103.987-14.331,113.845-4.473c8.572,8.572-17.083,90.488-25.954,117.803
			c-1.583,4.877,0.755,6.841,5.266,4.4l83.477-45.063c4.51-2.437,9.027-8.484,10.165-13.485
			c5.448-23.988,21.259-88.376,37.461-104.582c14.016-14.01,37.971-18.073,51.095-19.251c5.113-0.453,11.312-4.104,13.821-8.572
			l17.396-30.926c2.513-4.468,1.311-5.474-2.985-2.669c-13.053,8.496-40.203,22.218-58.412,4.004
			c-7.881-7.883-6.586-21.206-1.234-35.668L378.504,90.521l0.068,0.074c0,0,15.44-14.99,27.699-9.986
			c0,0,36.323-43.138,60.841-42.688c0,0,8.403-18.839,16.113-33.822L356.771,32.483c0,0,6.592,10.345,3.435,22.319L240.065,176.836
			c-4.296-0.495-8.229-2.066-11.438-5.274c-14.329-14.328,6.404-45.676,17.168-59.875c3.102-4.093,2.023-5.504-2.621-3.338
			l-42.637,19.837c-4.651,2.17-9.155,8.019-10.247,13.032c-3.366,15.49-11.357,46.474-23.501,58.61
			c-13.662,13.661-95.407,29.541-123.064,34.59c-5.048,0.92-9.186,5.771-9.602,10.893c-3.424,42.074-24.353,91.386-33.238,110.726
			C-1.256,360.701,0.595,362.501,5.252,360.349z"/>
	</g>
</g>
</svg>