<svg xmlns="http://www.w3.org/2000/svg" width="128" height="128" viewBox="0 0 24 24"><path fill-rule="evenodd" d="M11.5 1.25a5.25 5.25 0 1 0 0 10.5 5.25 5.25 0 0 0 0-10.5ZM7.75 6.5a3.75 3.75 0 1 1 7.5 0 3.75 3.75 0 0 1-7.5 0Z"/><path d="M9.294 12.25c-3.423 0-6.044 3.113-6.044 6.75v4c0 .414.336.75.75.75h15a.75.75 0 0 0 0-1.5H4.75V19c0-2.99 2.12-5.25 4.544-5.25h4.412c1.32 0 2.532.654 3.379 1.742a.75.75 0 0 0 1.183-.922c-1.093-1.403-2.72-2.32-4.562-2.32H9.294Z"/><path d="M19 16.25A2.75 2.75 0 1 0 21.75 19v-4.67l.862.52a.75.75 0 1 0 .776-1.284l-2-1.208A.75.75 0 0 0 20.25 13v3.55c-.375-.192-.8-.3-1.25-.3Z"/></svg>