<?xml version="1.0"?>
<svg xmlns="http://www.w3.org/2000/svg" viewBox="0 0 24 24">
    <path d="M 18.59375 3 L 12.25 9.34375 C 12.274 10.20475 12.377 11.1195 13 11.4375 L 19.40625 5 L 22 5 L 22 3 L 18.59375 3 z M 10.0625 7.21875 C 9.8977812 7.2047969 9.729 7.237 9.5625 7.3125 C 8.4275 7.8275 7.5765 8.9155 7.5625 10.1875 C 7.5555 10.7955 7.105 11.3125 6.5 11.3125 C 4.356 11.3115 1.18375 13.4425 2.21875 16.6875 C 2.56575 17.7765 4.5995 21 7.5625 21 C 9.9335 21 11.876 19.0695 11.875 16.6875 C 11.875 16.0885 12.30725 15.62 12.90625 15.625 C 13.87625 15.633 14.69475 14.97475 14.96875 14.09375 C 15.06575 13.78075 14.827 13.4565 14.5 13.4375 C 13.095 13.3565 12.345 12.964 11.875 12.375 C 11.148 11.463 11.017 10.36375 11 8.21875 C 10.9955 7.6705 10.556656 7.2606094 10.0625 7.21875 z M 9 12 L 11 14 L 10 15 L 8 13 L 9 12 z M 7 14 L 9 16 L 8 17 L 6 15 L 7 14 z"/>
</svg>
